<svg width="39" height="4" viewBox="0 0 39 4" fill="none" xmlns="http://www.w3.org/2000/svg">
<path d="M10.0587 0.620728H1.10604C0.694079 0.620728 0.359985 1.01633 0.359985 1.50414V2.38756C0.359985 2.87537 0.694079 3.27097 1.10604 3.27097H10.0587C10.4707 3.27097 10.8048 2.87537 10.8048 2.38756V1.50414C10.8048 1.01633 10.4707 0.620728 10.0587 0.620728Z" fill="black"/>
<path d="M23.4988 0.620728H14.5461C14.1341 0.620728 13.8 1.01633 13.8 1.50414V2.38756C13.8 2.87537 14.1341 3.27097 14.5461 3.27097H23.4988C23.9108 3.27097 24.2448 2.87537 24.2448 2.38756V1.50414C24.2448 1.01633 23.9108 0.620728 23.4988 0.620728Z" fill="black"/>
<path d="M37.8987 0.620728H28.946C28.534 0.620728 28.2 1.01633 28.2 1.50414V2.38756C28.2 2.87537 28.534 3.27097 28.946 3.27097H37.8987C38.3107 3.27097 38.6448 2.87537 38.6448 2.38756V1.50414C38.6448 1.01633 38.3107 0.620728 37.8987 0.620728Z" fill="black"/>
</svg>
